<svg width="5756" height="95" viewBox="0 0 5756 95" fill="none" xmlns="http://www.w3.org/2000/svg">
<path d="M2652.99 0L5708.5 0C5734.73 1.41737e-05 5756 21.2665 5756 47.5C5756 73.7335 5734.73 95 5708.5 95L2587.58 95L2652.99 0ZM2030.85 0L2180.02 0L2114.61 95L1965.45 95L2030.85 0ZM1750.31 0L1899.47 0L1834.06 95L1684.9 95L1750.31 0ZM1469.76 0L1618.93 0L1553.52 95L1404.35 95L1469.76 0ZM1189.22 0L1338.38 0L1272.97 95L1123.81 95L1189.22 0ZM908.67 0L1057.83 0L992.427 95L843.263 95L908.67 0ZM628.124 0L777.288 0L711.881 95L562.717 95L628.124 0ZM347.578 0L496.742 0L431.335 95L282.171 95L347.578 0ZM47.5 95C21.2665 95 0 73.7335 0 47.5C0 21.2665 21.2665 0 47.5 0L216.196 0L150.789 95L47.5 95ZM2311.4 0L2521.61 0L2456.2 95L2245.99 95L2311.4 0Z" fill="#2A2A30"/>
</svg>
