<svg width="342" height="292" viewBox="0 0 342 292" fill="none" xmlns="http://www.w3.org/2000/svg">
<mask id="path-1-inside-1_45_23" fill="white">
<path d="M342 292H0V62.3203C4.87702 59.0988 8.54496 54.4287 10.2607 48.9941C13.236 49.8706 16.3884 50.3437 19.6533 50.3438C37.7201 50.3438 52.3662 35.9263 52.3662 18.1416C52.3662 16.0329 52.1577 13.9721 51.7646 11.9766C57.9808 9.72998 63.0777 5.43731 66.0762 0H342V292Z"/>
</mask>
<path d="M342 292H0V62.3203C4.87702 59.0988 8.54496 54.4287 10.2607 48.9941C13.236 49.8706 16.3884 50.3437 19.6533 50.3438C37.7201 50.3438 52.3662 35.9263 52.3662 18.1416C52.3662 16.0329 52.1577 13.9721 51.7646 11.9766C57.9808 9.72998 63.0777 5.43731 66.0762 0H342V292Z" fill="#766257"/>
<path d="M342 292V293H343V292H342ZM0 292H-1V293H0V292ZM0 62.3203L-0.551164 61.4859L-1 61.7824V62.3203H0ZM10.2607 48.9941L10.5433 48.0349L9.60244 47.7577L9.30714 48.6931L10.2607 48.9941ZM19.6533 50.3438L19.6533 51.3438H19.6533V50.3438ZM52.3662 18.1416L53.3662 18.1416L53.3662 18.1416L52.3662 18.1416ZM51.7646 11.9766L51.4248 11.0361L50.6176 11.3278L50.7835 12.1698L51.7646 11.9766ZM66.0762 0V-1H65.4857L65.2005 -0.482903L66.0762 0ZM342 0H343V-1H342V0ZM342 292V291H0V292V293H342V292ZM0 292H1V62.3203H0H-1V292H0ZM0 62.3203L0.551164 63.1547C5.6048 59.8165 9.4244 54.9647 11.2143 49.2952L10.2607 48.9941L9.30714 48.6931C7.66551 53.8928 4.14923 58.3811 -0.551164 61.4859L0 62.3203ZM10.2607 48.9941L9.97816 49.9534C13.0438 50.8565 16.2914 51.3437 19.6533 51.3437L19.6533 50.3438L19.6533 49.3438C16.4855 49.3437 13.4281 48.8847 10.5433 48.0349L10.2607 48.9941ZM19.6533 50.3438V51.3438C38.2575 51.3438 53.3662 36.4934 53.3662 18.1416H52.3662H51.3662C51.3662 35.3593 37.1827 49.3438 19.6533 49.3438V50.3438ZM52.3662 18.1416L53.3662 18.1416C53.3662 15.9668 53.1512 13.8413 52.7458 11.7833L51.7646 11.9766L50.7835 12.1698C51.1643 14.103 51.3662 16.099 51.3662 18.1416L52.3662 18.1416ZM51.7646 11.9766L52.1045 12.917C58.5364 10.5925 63.83 6.144 66.9518 0.482903L66.0762 0L65.2005 -0.482903C62.3254 4.73063 57.4252 8.86748 51.4248 11.0361L51.7646 11.9766ZM66.0762 0V1H342V0V-1H66.0762V0ZM342 0H341V292H342H343V0H342Z" fill="white" mask="url(#path-1-inside-1_45_23)"/>
</svg>
