<svg width="313" height="1296" viewBox="0 0 313 1296" fill="none" xmlns="http://www.w3.org/2000/svg">
<path d="M181.601 54.8924V65.3744C181.601 78.2469 176.683 88.1465 166.847 95.0732C156.896 102 143.241 105.463 125.883 105.463C109.683 105.463 96.2018 101.387 85.4401 93.2342C74.5626 85.0816 69.1239 73.6496 69.1239 58.9381C69.1239 49.1304 71.6697 39.997 76.7613 31.5379C81.8528 23.0175 89.0273 15.9376 98.2847 10.2982L106.096 15.4472C98.3426 20.4737 92.3253 26.7874 88.0437 34.3883C83.7622 41.9892 81.6214 50.1725 81.6214 58.9381C81.6214 71.8719 85.7872 81.7715 94.1189 88.6369C102.451 95.441 113.039 98.843 125.883 98.843C139.769 98.843 150.473 96.0539 157.995 90.4758C165.401 84.8364 169.104 76.4693 169.104 65.3744V55.2602C169.104 42.2038 174.08 32.2122 184.031 25.2856C193.867 18.2976 207.464 14.8036 224.822 14.8036C241.022 14.8036 254.561 18.8799 265.439 27.0325C276.201 35.1852 281.581 46.6172 281.581 61.3287C281.581 71.1364 279.036 80.3004 273.944 88.8208C268.852 97.2799 261.678 104.329 252.421 109.969L244.61 104.82C252.363 99.7931 258.38 93.4794 262.662 85.8785C266.943 78.2776 269.084 70.0943 269.084 61.3287C269.084 48.3949 264.918 38.5259 256.586 31.7218C248.255 24.8565 237.667 21.4238 224.822 21.4238C210.936 21.4238 200.29 24.2435 192.884 29.8829C185.362 35.461 181.601 43.7975 181.601 54.8924ZM206.596 54.8924V65.3744C206.596 82.4152 199.306 95.5636 184.726 104.82C170.03 114.076 150.416 118.704 125.883 118.704C114.659 118.704 104.128 117.386 94.2925 114.75C84.4565 112.114 75.8355 108.344 68.4296 103.44C60.908 98.4752 55.0064 92.1615 50.7248 84.4993C46.3275 76.8371 44.1289 68.3167 44.1289 58.9381C44.1289 47.1076 47.5426 36.0433 54.3699 25.7453C61.0815 15.4472 70.5125 6.86554 82.6629 0.000183195L90.1266 5.3331C79.4806 11.5855 71.2647 19.401 65.4788 28.7795C59.5772 38.1581 56.6264 48.211 56.6264 58.9381C56.6264 75.4885 63.2223 88.4837 76.4141 97.9235C89.6059 107.363 106.096 112.083 125.883 112.083C146.828 112.083 163.434 108.038 175.7 99.9464C187.966 91.855 194.099 80.331 194.099 65.3744V55.2602C194.099 37.116 204.34 28.044 224.822 28.044C234.079 28.044 241.717 30.833 247.734 36.4111C253.636 41.9279 256.586 50.2338 256.586 61.3287C256.586 69.1135 254.908 76.3467 251.553 83.0281C248.081 89.7096 243.163 95.2264 236.799 99.5786L229.161 94.3376C239.113 86.6754 244.089 75.6724 244.089 61.3287C244.089 52.134 242.295 45.3913 238.708 41.1004C235.121 36.8096 230.492 34.6641 224.822 34.6641C218.226 34.6641 213.539 36.1659 210.762 39.1695C207.985 42.1731 206.596 47.4141 206.596 54.8924ZM156.606 54.8924V65.3744C156.606 83.2733 146.365 92.2228 125.883 92.2228C116.626 92.2228 109.046 89.4644 103.145 83.9476C97.1276 78.3695 94.1189 70.033 94.1189 58.9381C94.1189 51.1533 95.8547 43.9201 99.3262 37.2386C102.682 30.5572 107.542 25.0404 113.907 20.6882L121.544 25.9292C111.592 33.5914 106.616 44.5944 106.616 58.9381C106.616 68.1328 108.41 74.8755 111.997 79.1664C115.585 83.4572 120.213 85.6027 125.883 85.6027C132.479 85.6027 137.166 84.1009 139.943 81.0973C142.72 78.0937 144.109 72.8527 144.109 65.3744V54.8924C144.109 37.8516 151.457 24.7032 166.153 15.4472C180.734 6.19127 200.29 1.56328 224.822 1.56328C236.047 1.56328 246.577 2.88118 256.413 5.51699C266.249 8.1528 274.928 11.9533 282.449 16.9184C289.855 21.8222 295.757 28.1053 300.154 35.7675C304.436 43.4297 306.576 51.9501 306.576 61.3287C306.576 73.1592 303.221 84.2235 296.509 94.5215C289.682 104.82 280.193 113.401 268.042 120.267L260.579 114.934C271.225 108.681 279.498 100.866 285.4 91.4873C291.186 82.1087 294.079 72.0558 294.079 61.3287C294.079 44.7783 287.483 31.7831 274.291 22.3433C261.099 12.9034 244.61 8.18345 224.822 8.18345C203.877 8.18345 187.272 12.2291 175.005 20.3204C162.739 28.4117 156.606 39.9357 156.606 54.8924Z" fill="#C0C0C0"/>
<path d="M50.5508 225.543V218.923L300.501 218.923V225.543L50.5508 225.543ZM50.5508 185.822V179.202L238.013 179.202L238.013 130.379H250.511L250.511 179.202H263.008V130.379H275.506V179.202L288.003 179.202V130.379H300.501V185.822L50.5508 185.822ZM50.5508 199.063V192.443L300.501 192.443V199.063L50.5508 199.063ZM50.5508 212.303V205.683L300.501 205.683V212.303L50.5508 212.303Z" fill="#C0C0C0"/>
<path d="M50.5508 335.33V328.71L300.501 328.71V335.33L50.5508 335.33ZM50.5508 295.609V288.989H238.013L238.013 240.165H250.511L250.511 288.989H263.008V240.165H275.506V288.989H288.003V240.165H300.501V295.609L50.5508 295.609ZM50.5508 308.849V302.229L300.501 302.229V308.849L50.5508 308.849ZM50.5508 322.09V315.47L300.501 315.47V322.09L50.5508 322.09Z" fill="#C0C0C0"/>
<path d="M50.5508 359.237V352.617L300.501 352.617V359.237L50.5508 359.237ZM50.5508 372.478V365.858L300.501 365.858V372.478L50.5508 372.478ZM50.5508 385.718V379.098L300.501 379.098V385.718L50.5508 385.718ZM50.5508 398.958V392.338L300.501 392.338V398.958L50.5508 398.958Z" fill="#C0C0C0"/>
<path d="M50.5508 410.816L176.567 447.687L300.501 411.368V418.724L176.567 455.043L50.5508 418.172V410.816ZM50.5508 425.62L176.567 462.49L300.501 426.171V433.527L176.567 469.846L50.5508 432.975V425.62ZM50.5508 440.423L176.567 477.294L300.501 440.975V448.33L176.567 484.649L50.5508 447.779L50.5508 440.423ZM50.5508 455.226L176.567 492.189L300.501 455.778V463.134L176.567 499.545L50.5508 462.582V455.226ZM50.5508 510.211L300.501 510.211V503.59L50.5508 503.59V510.211ZM50.5508 523.451H300.501V516.831H50.5508V523.451ZM50.5508 536.691H300.501V530.071H50.5508V536.691ZM50.5508 549.932H300.501V543.311H50.5508V549.932Z" fill="#C0C0C0"/>
<path d="M125.537 616.959V628.085C125.537 632.804 123.281 636.207 118.768 638.291C114.139 640.375 108.064 641.417 100.542 641.417C83.8792 641.417 75.5475 634.827 75.5475 621.648C75.5475 609.266 79.019 599.949 85.9621 593.696L93.5994 599.029C89.8965 603.32 88.045 610.86 88.045 621.648C88.045 626.92 89.1443 630.475 91.3429 632.314C93.5416 634.092 96.6081 634.981 100.542 634.981C104.477 634.981 107.543 634.49 109.742 633.509C111.941 632.529 113.04 630.72 113.04 628.085V616.683C113.04 608.408 115.702 600.96 121.025 594.34C126.348 587.659 133.638 582.172 142.895 577.882C152.037 573.591 162.625 570.311 174.66 568.043C186.579 565.775 199.365 564.641 213.02 564.641C224.129 564.641 234.659 565.469 244.611 567.124C254.563 568.779 263.704 571.292 272.036 574.663C280.368 577.974 287.6 581.989 293.733 586.708C299.75 591.367 304.437 596.945 307.793 603.443C311.264 609.879 313 616.867 313 624.407C313 636.237 309.586 647.332 302.759 657.691C296.047 667.989 286.616 676.571 274.466 683.437L267.002 678.104C277.648 671.851 285.922 664.036 291.824 654.657C297.61 645.217 300.502 635.134 300.502 624.407C300.502 616.009 298.246 608.439 293.733 601.696C289.104 594.892 282.798 589.314 274.813 584.961C266.829 580.548 257.571 577.177 247.041 574.847C236.511 572.457 225.17 571.261 213.02 571.261C196.935 571.261 182.413 572.978 169.452 576.41C156.376 579.843 145.788 585.084 137.688 592.133C129.588 599.121 125.537 607.397 125.537 616.959ZM138.035 628.085V617.603C138.035 605.159 145.209 595.443 159.558 588.455C173.907 581.406 191.728 577.882 213.02 577.882C234.659 577.882 252.595 581.958 266.829 590.111C280.946 598.263 288.005 609.695 288.005 624.407C288.005 634.214 285.459 643.378 280.368 651.899C275.276 660.419 268.102 667.499 258.844 673.138L251.033 667.989C258.786 662.963 264.804 656.649 269.085 649.048C273.367 641.386 275.507 633.172 275.507 624.407C275.507 611.473 269.664 601.604 257.976 594.8C246.289 587.934 231.303 584.502 213.02 584.502C194.968 584.502 180.04 587.383 168.237 593.145C156.434 598.845 150.532 607.029 150.532 617.695V628.085C150.532 637.034 145.904 643.746 136.646 648.221C127.389 652.696 115.354 654.933 100.542 654.933C85.7306 654.933 73.696 652.175 64.4386 646.658C55.1812 641.08 50.5525 632.743 50.5525 621.648C50.5525 613.863 52.2883 606.63 55.7598 599.949C59.1156 593.267 63.9757 587.751 70.3402 583.398L77.9776 588.639C68.0259 596.302 63.05 607.305 63.05 621.648C63.05 630.904 66.5215 637.678 73.4646 641.969C80.2919 646.198 89.3179 648.313 100.542 648.313C111.883 648.313 120.967 646.75 127.794 643.624C134.621 640.436 138.035 635.256 138.035 628.085ZM163.03 628.085V617.97C163.03 609.021 167.717 602.309 177.09 597.834C186.463 593.359 198.44 591.122 213.02 591.122C227.832 591.122 239.866 593.911 249.124 599.489C258.381 605.006 263.01 613.312 263.01 624.407C263.01 632.192 261.332 639.455 257.976 646.198C254.505 652.88 249.587 658.396 243.222 662.748L235.585 657.508C245.537 649.845 250.512 638.812 250.512 624.407C250.512 615.151 247.099 608.408 240.271 604.178C233.328 599.888 224.245 597.742 213.02 597.742C201.795 597.742 192.769 599.336 185.942 602.523C178.999 605.711 175.527 610.89 175.527 618.062V628.085C175.527 640.651 168.469 650.489 154.351 657.599C140.118 664.649 122.182 668.173 100.542 668.173C78.9033 668.173 61.0249 664.097 46.9074 655.944C32.6741 647.792 25.5575 636.36 25.5575 621.648C25.5575 611.841 28.1033 602.707 33.1949 594.248C38.2864 585.728 45.4609 578.648 54.7183 573.008L62.5293 578.157C54.7762 583.184 48.7589 589.498 44.4773 597.098C40.1958 604.699 38.055 612.883 38.055 621.648C38.055 634.582 43.8987 644.482 55.5862 651.347C67.2737 658.151 82.2591 661.553 100.542 661.553C118.71 661.553 133.696 658.672 145.499 652.91C157.186 647.148 163.03 638.873 163.03 628.085ZM188.025 628.085V617.97C188.025 613.25 190.339 609.848 194.968 607.764C199.597 605.68 205.614 604.638 213.02 604.638C229.683 604.638 238.015 611.228 238.015 624.407C238.015 636.85 234.543 646.198 227.6 652.45L219.963 647.118C223.666 642.827 225.517 635.256 225.517 624.407C225.517 619.135 224.418 615.61 222.22 613.833C220.021 611.994 216.954 611.074 213.02 611.074C209.201 611.074 206.193 611.595 203.994 612.637C201.68 613.618 200.522 615.457 200.522 618.154V628.085C200.522 636.544 197.919 644.206 192.712 651.071C187.504 657.875 180.33 663.484 171.188 667.898C162.046 672.25 151.458 675.59 139.424 677.92C127.389 680.249 114.429 681.414 100.542 681.414C89.4336 681.414 78.9033 680.586 68.9516 678.931C58.9999 677.276 49.8582 674.794 41.5265 671.483C33.1949 668.112 26.0204 664.097 20.0031 659.438C13.87 654.718 9.1256 649.14 5.76979 642.704C2.29826 636.207 0.5625 629.188 0.5625 621.648C0.5625 609.818 3.97617 598.754 10.8035 588.455C17.5151 578.157 26.9461 569.576 39.0965 562.71L46.5602 568.043C35.9142 574.296 27.6983 582.111 21.9124 591.49C16.0108 600.868 13.06 610.921 13.06 621.648C13.06 630.046 15.3744 637.647 20.0031 644.451C24.516 651.194 30.7648 656.772 38.7493 661.185C46.7338 665.538 55.9912 668.909 66.5215 671.3C77.0518 673.629 88.3922 674.794 100.542 674.794C116.859 674.794 131.555 673.047 144.631 669.553C157.707 666.059 168.237 660.726 176.222 653.554C184.091 646.382 188.025 637.892 188.025 628.085Z" fill="#C0C0C0"/>
<path d="M50.5508 784.118V777.498H300.501V784.118H50.5508ZM50.5508 916.614V909.994H300.501V916.614H50.5508ZM50.5508 797.359V790.739H300.501V797.359H50.5508ZM50.5508 810.599V803.979H300.501V810.599H50.5508ZM50.5508 823.839V817.219H300.501V823.839H200.521L200.521 870.273H300.501V876.893H50.5508V870.273H138.033V823.839H50.5508ZM50.5508 890.133V883.513H300.501V890.133H50.5508ZM50.5508 903.373V896.753H300.501V903.373H50.5508ZM188.023 823.839H175.526V870.273H188.023L188.023 823.839ZM163.028 823.839H150.531V870.273H163.028V823.839Z" fill="#C0C0C0"/>
<path d="M136.646 960.198L144.283 965.531C131.786 970.864 125.537 977.73 125.537 986.127C125.537 993.422 130.455 999.674 140.291 1004.88C150.011 1010.03 161.757 1012.61 175.527 1012.61C189.298 1012.61 201.101 1010.03 210.937 1004.88C220.657 999.674 225.517 993.422 225.517 986.127C225.517 982.02 223.839 978.189 220.483 974.634C217.128 971.017 212.499 967.953 206.597 965.439L214.755 960.29C222.046 963.355 227.774 967.156 231.939 971.692C235.99 976.228 238.015 981.04 238.015 986.127C238.015 995.261 231.939 1003.08 219.789 1009.57C207.523 1016.01 192.769 1019.23 175.527 1019.23C158.285 1019.23 143.589 1016.01 131.439 1009.57C119.173 1003.08 113.04 995.261 113.04 986.127C113.04 980.978 115.18 976.136 119.462 971.6C123.628 967.064 129.356 963.263 136.646 960.198ZM121.024 949.9L128.662 955.141C119.867 958.819 112.982 963.386 108.006 968.841C103.03 974.236 100.542 979.998 100.542 986.127C100.542 997.1 107.89 1006.48 122.586 1014.26C137.283 1021.99 154.929 1025.85 175.527 1025.85C196.125 1025.85 213.772 1021.99 228.468 1014.26C243.164 1006.48 250.512 997.1 250.512 986.127C250.512 979.998 248.024 974.205 243.048 968.749C237.957 963.294 231.014 958.727 222.219 955.049L230.204 949.992C240.387 954.283 248.429 959.585 254.331 965.899C260.117 972.213 263.01 978.956 263.01 986.127C263.01 994.525 259.133 1002.28 251.38 1009.39C243.511 1016.5 232.865 1022.14 219.442 1026.31C206.019 1030.42 191.38 1032.47 175.527 1032.47C159.674 1032.47 145.036 1030.42 131.612 1026.31C118.189 1022.14 107.601 1016.5 99.8479 1009.39C91.9791 1002.28 88.0447 994.525 88.0447 986.127C88.0447 978.956 90.9955 972.213 96.8971 965.899C102.683 959.524 110.725 954.191 121.024 949.9ZM105.402 939.51L113.213 944.659C101.526 949.624 92.3262 955.724 85.6146 962.957C78.903 970.19 75.5472 977.913 75.5472 986.127C75.5472 993.299 78.2087 1000.16 83.5317 1006.72C88.739 1013.22 95.8556 1018.86 104.882 1023.64C113.792 1028.36 124.438 1032.13 136.82 1034.95C149.086 1037.71 161.988 1039.09 175.527 1039.09C189.066 1039.09 202.026 1037.71 214.408 1034.95C226.674 1032.13 237.32 1028.36 246.346 1023.64C255.257 1018.86 262.373 1013.22 267.696 1006.72C272.904 1000.16 275.507 993.299 275.507 986.127C275.507 977.913 272.151 970.19 265.44 962.957C258.728 955.724 249.529 949.624 237.841 944.659L245.999 939.694C259.075 945.272 269.374 952.107 276.896 960.198C284.302 968.29 288.005 976.933 288.005 986.127C288.005 994.219 285.054 1001.94 279.152 1009.3C273.135 1016.65 265.15 1023 255.199 1028.33C245.131 1033.6 233.155 1037.83 219.268 1041.02C205.382 1044.15 190.802 1045.71 175.527 1045.71C160.252 1045.71 145.672 1044.15 131.786 1041.02C117.9 1037.83 105.981 1033.6 96.0292 1028.33C85.9618 1023 77.9773 1016.65 72.0757 1009.3C66.0583 1001.94 63.0497 994.219 63.0497 986.127C63.0497 976.871 66.8105 968.198 74.3321 960.106C81.8538 951.954 92.2105 945.088 105.402 939.51ZM89.7804 929.212L97.2442 934.545C82.7795 940.736 71.3814 948.337 63.0497 957.348C54.718 966.298 50.5522 975.891 50.5522 986.127C50.5522 995.077 53.8501 1003.66 60.446 1011.87C67.0419 1020.03 75.9522 1027.07 87.1768 1033.02C98.2857 1038.9 111.593 1043.59 127.099 1047.09C142.49 1050.58 158.632 1052.33 175.527 1052.33C192.422 1052.33 208.622 1050.58 224.129 1047.09C239.519 1043.59 252.827 1038.9 264.051 1033.02C275.16 1027.07 284.012 1020.03 290.608 1011.87C297.204 1003.66 300.502 995.077 300.502 986.127C300.502 975.891 296.336 966.298 288.005 957.348C279.673 948.337 268.275 940.736 253.81 934.545L261.447 929.304C277.417 936.108 290.03 944.475 299.287 954.406C308.429 964.275 313 974.849 313 986.127C313 995.996 309.355 1005.44 302.064 1014.45C294.774 1023.4 284.996 1031.12 272.73 1037.62C260.464 1044.12 245.883 1049.29 228.989 1053.16C211.978 1057.02 194.158 1058.95 175.527 1058.95C156.897 1058.95 139.134 1057.02 122.239 1053.16C105.229 1049.29 90.5905 1044.12 78.3244 1037.62C66.0583 1031.12 56.2802 1023.4 48.99 1014.45C41.6998 1005.44 38.0547 995.996 38.0547 986.127C38.0547 974.849 42.6834 964.244 51.9408 954.314C61.0825 944.384 73.6957 936.016 89.7804 929.212Z" fill="#C0C0C0"/>
<path d="M300.501 1147.95V1154.57H50.5508V1147.95H300.501ZM300.501 1161.19V1167.81H50.5508V1161.19H300.501ZM300.501 1174.43V1181.05H50.5508V1174.43H300.501ZM238.013 1134.71L238.013 1071.36H250.511L250.511 1134.71H263.008V1071.36H275.506V1134.71H288.003V1071.36H300.501V1141.33H50.5508L50.5508 1071.36H63.0483L63.0483 1134.71H75.5458L75.5458 1071.36H88.0433L88.0433 1134.71H100.541L100.541 1071.36H113.038L113.038 1134.71H144.108V1075.04H156.606V1134.71H169.103V1075.04H181.601L181.601 1134.71H194.098L194.098 1075.04H206.596L206.596 1134.71H238.013Z" fill="#C0C0C0"/>
<path d="M25.5561 1295.44H13.0586L13.0586 1196.13H25.5561L25.5561 1295.44ZM50.5511 1295.44H38.0536L38.0536 1196.13H50.5511L50.5511 1295.44ZM75.5461 1295.44H63.0486L63.0486 1196.13H75.5461V1222.61H300.501V1229.23H75.5461L75.5461 1235.85H300.501V1242.48H75.5461V1249.1H300.501V1255.72H75.5461V1262.34H300.501V1268.96H75.5461V1295.44Z" fill="#C0C0C0"/>
</svg>
