<svg width="5756" height="95" viewBox="0 0 5756 95" fill="none" xmlns="http://www.w3.org/2000/svg">
<path d="M3103.01 95H47.5C21.2665 95 0 73.7335 0 47.5C0 21.2665 21.2665 0 47.5 0H3168.42L3103.01 95ZM3725.15 95H3575.98L3641.39 0H3790.55L3725.15 95ZM4005.69 95H3856.53L3921.94 0H4071.1L4005.69 95ZM4286.24 95H4137.07L4202.48 0H4351.65L4286.24 95ZM4566.78 95H4417.62L4483.03 0H4632.19L4566.78 95ZM4847.33 95H4698.17L4763.57 0H4912.74L4847.33 95ZM5127.88 95H4978.71L5044.12 0H5193.28L5127.88 95ZM5408.42 95H5259.26L5324.67 0H5473.83L5408.42 95ZM5708.5 0C5734.73 1.41737e-05 5756 21.2665 5756 47.5C5756 73.7335 5734.73 95 5708.5 95H5539.8L5605.21 0H5708.5ZM3444.6 95H3234.39L3299.8 0H3510.01L3444.6 95Z" fill="#2A2A30"/>
</svg>
